<svg id="_x31__x2C_5" enable-background="new 0 0 24 24" height="512" viewBox="0 0 24 24" width="512" xmlns="http://www.w3.org/2000/svg">
    <path d="m18.25 9.5c0 .384-.023.756-.079 1.129-.553 4.29-4.234 7.621-8.671 7.621s-8.118-3.331-8.671-7.621c-.056-.373-.079-.745-.079-1.129s.023-.757.079-1.129c.553-4.29 4.234-7.621 8.671-7.621s8.118 3.331 8.671 7.621c.056.372.079.745.079 1.129z" fill="#36393F" />
    <path d="m13 11.25c-1.241 0-2.25-1.009-2.25-2.25s1.009-2.25 2.25-2.25 2.25 1.009 2.25 2.25-1.009 2.25-2.25 2.25z" fill="#6092ff" />
    <path d="m13 12c-1.654 0-3-1.346-3-3s1.346-3 3-3 3 1.346 3 3-1.346 3-3 3zm0-4.5c-.827 0-1.5.673-1.5 1.5s.673 1.5 1.5 1.5 1.5-.673 1.5-1.5-.673-1.5-1.5-1.5z" fill='#6092ff' />
    <path d="m4.75 12c-.414 0-.75-.336-.75-.75v-1.25c0-.965.785-1.75 1.75-1.75h4.75c.414 0 .75.336.75.75s-.336.75-.75.75h-4.75c-.138 0-.25.112-.25.25v1.25c0 .414-.336.75-.75.75z" fill='#6092ff' />
    <path d="m9.5 19c-5.238 0-9.5-4.262-9.5-9.5s4.262-9.5 9.5-9.5 9.5 4.262 9.5 9.5-4.262 9.5-9.5 9.5zm0-17.5c-4.411 0-8 3.589-8 8s3.589 8 8 8 8-3.589 8-8-3.589-8-8-8z" fill='#6092ff' />
    <path d="m23.25 24c-.192 0-.384-.073-.53-.22l-7.31-7.31c-.293-.293-.293-.768 0-1.061s.768-.293 1.061 0l7.31 7.31c.293.293.293.768 0 1.061-.147.147-.339.22-.531.22z" fill='#6092ff' />
</svg>